<svg xmlns="http://www.w3.org/2000/svg" viewBox="0 0 512 512"><defs><linearGradient id="g" x1="0" y1="0" x2="1" y2="1"><stop offset="0" stop-color="#25705a"/><stop offset="1" stop-color="#0e3a30"/></linearGradient><linearGradient id="s" x1="0" y1="0" x2="0" y2="1"><stop offset="0" stop-color="#f5dcb7"/><stop offset="1" stop-color="#e0bb8b"/></linearGradient></defs><rect width="512" height="512" fill="url(#g)"/><path d="M96 168h320a32 32 0 0 1 0 64v0a32 32 0 0 0 0 64v0a32 32 0 0 1 0 64H96a32 32 0 0 1 0-64v0a32 32 0 0 0 0-64v0a32 32 0 0 1 0-64z" transform="translate(0 -6)" fill="url(#s)"/><text x="256" y="292" font-size="112" font-family="Nunito,ui-rounded,sans-serif" font-weight="800" text-anchor="middle" fill="#3a2216">DIVI</text><path d="M330 104c40-34 92-30 118 6-30 34-84 40-118-6z" fill="#8fbf7a"/><path d="M336 106c30 4 70 0 104 8" stroke="#e6f6e4" stroke-width="4" fill="none" opacity=".7"/></svg>
